<svg id="Layer_1" data-name="Layer 1" xmlns="http://www.w3.org/2000/svg" viewBox="0 0 728.59 256.3"><defs><style>.cls-1{fill:#1db7ed;}.cls-2{fill:#016eb6;}</style></defs><path class="cls-1" d="M652.41,546.13v83.1h-.63a56.08,56.08,0,0,1-39.66-16.43h0a56.05,56.05,0,0,1-16.41-39.64V492.29a27.28,27.28,0,0,1,.13-2.73Z" transform="translate(-595.71 -411.85)"/><path class="cls-2" d="M875.52,489.49l-56.64,56.63L764,601V639.8a28.34,28.34,0,0,1-28.34,28.35h0A28.35,28.35,0,0,1,707.3,639.8V601l-54.89-54.9-56.57-56.57A26.35,26.35,0,0,1,622,466H643.8A20.78,20.78,0,0,1,658.49,472l77.16,77.15L812.8,472A20.8,20.8,0,0,1,827.49,466h22.85A25.22,25.22,0,0,1,875.52,489.49Z" transform="translate(-595.71 -411.85)"/><path class="cls-1" d="M875.59,491.2v81.92a56.1,56.1,0,0,1-16.45,39.68h0a56.1,56.1,0,0,1-39.67,16.43h-.59V546.12l56.64-56.63C875.57,490.06,875.59,490.63,875.59,491.2Z" transform="translate(-595.71 -411.85)"/><polygon class="cls-1" points="77.28 0 139.94 62.66 202.6 0 77.28 0"/><path class="cls-2" d="M1006.79,474.59q4.74,4.85,4.74,13.47v25.1H998.44V489.83a8.82,8.82,0,0,0-2.2-6.42,9.14,9.14,0,0,0-12.08,0,8.82,8.82,0,0,0-2.2,6.42v23.33H968.87V489.83a8.86,8.86,0,0,0-2.19-6.42,9.15,9.15,0,0,0-12.09,0,8.86,8.86,0,0,0-2.2,6.42v23.33H939.23v-43h13.16v5.39a14.05,14.05,0,0,1,5.24-4.27,16.35,16.35,0,0,1,7.31-1.58,17.76,17.76,0,0,1,8.67,2.08,14.79,14.79,0,0,1,6,5.93,17.26,17.26,0,0,1,6.09-5.78,16.39,16.39,0,0,1,8.39-2.23Q1002.06,469.74,1006.79,474.59Z" transform="translate(-595.71 -411.85)"/><path class="cls-2" d="M1064.66,470.2l-27,63.37h-14.17l9.86-21.87-17.48-41.5h14.7l9.94,26.87,9.85-26.87Z" transform="translate(-595.71 -411.85)"/><path class="cls-2" d="M966,598.17a10.93,10.93,0,0,0,4.24-6.16h7.54a18.53,18.53,0,0,1-6,9.82,19.36,19.36,0,0,1-11.28,4.35V610a11.57,11.57,0,0,1,7.24,1.92,6.7,6.7,0,0,1,2.69,5.7,7.1,7.1,0,0,1-2.62,5.78,10.33,10.33,0,0,1-6.77,2.15h-8.86V621h7.47a7.1,7.1,0,0,0,3.74-.77,2.89,2.89,0,0,0,1.19-2.62,2.8,2.8,0,0,0-1.19-2.54,7.1,7.1,0,0,0-3.74-.77h-3.85V606.1a19.72,19.72,0,0,1-9.39-3.35,18.87,18.87,0,0,1-6.36-7.54,24.78,24.78,0,0,1-2.27-10.82A24,24,0,0,1,940.38,573a18.85,18.85,0,0,1,7.28-7.58,20.85,20.85,0,0,1,10.66-2.69q7.78,0,12.82,3.77a17.79,17.79,0,0,1,6.66,10.47h-7.54a10.83,10.83,0,0,0-4.2-6.08,13,13,0,0,0-7.74-2.24,12.43,12.43,0,0,0-9.7,4.12q-3.69,4.13-3.7,11.67t3.7,11.78a12.36,12.36,0,0,0,9.7,4.16A13.08,13.08,0,0,0,966,598.17Z" transform="translate(-595.71 -411.85)"/><path class="cls-2" d="M987.12,573a18.93,18.93,0,0,1,7.2-7.58,19.68,19.68,0,0,1,10.2-2.69,18.77,18.77,0,0,1,9.63,2.38,16,16,0,0,1,6.08,6v-7.7h7.08v42.19h-7.08v-7.85a16.56,16.56,0,0,1-6.2,6.12,18.52,18.52,0,0,1-9.59,2.43,19.12,19.12,0,0,1-10.16-2.78,19.36,19.36,0,0,1-7.16-7.77,24.19,24.19,0,0,1-2.62-11.4A23.69,23.69,0,0,1,987.12,573Zm31.18,3.12a13.59,13.59,0,0,0-5.19-5.43,14.25,14.25,0,0,0-7.2-1.88,14.07,14.07,0,0,0-7.16,1.85,13.36,13.36,0,0,0-5.16,5.39,17.06,17.06,0,0,0-1.93,8.31,17.43,17.43,0,0,0,1.93,8.43,13.58,13.58,0,0,0,5.16,5.47,13.91,13.91,0,0,0,7.16,1.89,14.16,14.16,0,0,0,7.2-1.89,13.51,13.51,0,0,0,5.19-5.47,17.28,17.28,0,0,0,1.93-8.35A17.1,17.1,0,0,0,1018.3,576.07Z" transform="translate(-595.71 -411.85)"/><path class="cls-2" d="M1047.72,569.14V594c0,2.06.43,3.51,1.31,4.36s2.38,1.27,4.54,1.27h5.16v5.92h-6.31c-3.91,0-6.83-.89-8.78-2.69s-2.93-4.75-2.93-8.86V569.14h-5.47v-5.77h5.47V552.74h7v10.63h11v5.77Z" transform="translate(-595.71 -411.85)"/><path class="cls-2" d="M1067.2,573a18.93,18.93,0,0,1,7.2-7.58,19.84,19.84,0,0,1,10.28-2.69,19,19,0,0,1,9.16,2.27,16.36,16.36,0,0,1,6.47,6V548.58h7.08v57h-7.08v-7.93a16.42,16.42,0,0,1-6.16,6.2,18.33,18.33,0,0,1-9.55,2.43,19.23,19.23,0,0,1-17.4-10.55,24.19,24.19,0,0,1-2.62-11.4A23.69,23.69,0,0,1,1067.2,573Zm31.18,3.12a13.55,13.55,0,0,0-5.2-5.43,14.75,14.75,0,0,0-14.36,0,13.4,13.4,0,0,0-5.15,5.39,17.06,17.06,0,0,0-1.93,8.31,17.43,17.43,0,0,0,1.93,8.43,13.62,13.62,0,0,0,5.15,5.47,14,14,0,0,0,7.17,1.89,14.12,14.12,0,0,0,7.19-1.89,13.47,13.47,0,0,0,5.2-5.47,17.28,17.28,0,0,0,1.93-8.35A17.1,17.1,0,0,0,1098.38,576.07Z" transform="translate(-595.71 -411.85)"/><path class="cls-2" d="M1126.26,563.37v42.19h-7V563.37Z" transform="translate(-595.71 -411.85)"/><path class="cls-2" d="M1150.47,564.6a16.37,16.37,0,0,1,8.36-2v7.24H1157q-11.79,0-11.78,12.78v22.94h-7V563.37h7v6.85A13.43,13.43,0,0,1,1150.47,564.6Z" transform="translate(-595.71 -411.85)"/><path class="cls-2" d="M1173.92,563.37v42.19h-7V563.37Z" transform="translate(-595.71 -411.85)"/><path class="cls-2" d="M1192.86,548.58v57h-7v-57Z" transform="translate(-595.71 -411.85)"/><path class="cls-2" d="M1264.31,564.64a14.7,14.7,0,0,1,6.08,6.12,20.41,20.41,0,0,1,2.24,9.93v24.87h-6.93V581.69q0-6.32-3.12-9.66a11,11,0,0,0-8.43-3.35,11.26,11.26,0,0,0-8.7,3.5q-3.24,3.51-3.24,10.13v23.25h-6.93V581.69q0-6.32-3.12-9.66a11,11,0,0,0-8.43-3.35,11.29,11.29,0,0,0-8.7,3.5q-3.22,3.51-3.23,10.13v23.25h-7V563.37h7v6.08a13.75,13.75,0,0,1,5.58-5.08,16.91,16.91,0,0,1,7.74-1.77,18.26,18.26,0,0,1,9.39,2.38,14.66,14.66,0,0,1,6.09,7,13.86,13.86,0,0,1,5.85-6.93,17.25,17.25,0,0,1,9.08-2.46A18.47,18.47,0,0,1,1264.31,564.64Z" transform="translate(-595.71 -411.85)"/><path class="cls-2" d="M1284.1,573a19,19,0,0,1,7.2-7.58,19.68,19.68,0,0,1,10.2-2.69,18.74,18.74,0,0,1,9.63,2.38,16,16,0,0,1,6.08,6v-7.7h7.08v42.19h-7.08v-7.85a16.56,16.56,0,0,1-6.2,6.12,18.52,18.52,0,0,1-9.59,2.43,19.12,19.12,0,0,1-10.16-2.78,19.36,19.36,0,0,1-7.16-7.77,24.19,24.19,0,0,1-2.62-11.4A23.69,23.69,0,0,1,1284.1,573Zm31.18,3.12a13.59,13.59,0,0,0-5.19-5.43,14.22,14.22,0,0,0-7.2-1.88,14.07,14.07,0,0,0-7.16,1.85,13.36,13.36,0,0,0-5.16,5.39,17.06,17.06,0,0,0-1.93,8.31,17.43,17.43,0,0,0,1.93,8.43,13.58,13.58,0,0,0,5.16,5.47,13.91,13.91,0,0,0,7.16,1.89,14.13,14.13,0,0,0,7.2-1.89,13.51,13.51,0,0,0,5.19-5.47,17.28,17.28,0,0,0,1.93-8.35A17.1,17.1,0,0,0,1315.28,576.07Z" transform="translate(-595.71 -411.85)"/></svg>